<svg width="200" height="200" viewBox="0 0 200 200" fill="none" xmlns="http://www.w3.org/2000/svg">
<path d="M0 5.99999C0 2.68629 2.68629 0 6 0H194C197.314 0 200 2.68629 200 6V194C200 197.314 197.314 200 194 200H5.99999C2.68629 200 0 197.314 0 194V5.99999Z" fill="#652016"/>
<path d="M51.6646 72.3889V128.069L100 155.913L148.335 128.069V72.3889L100 44.5459L51.6646 72.3889Z" fill="url(#paint0_linear)"/>
<path d="M100.381 89.0791L105.629 62.7014C105.636 62.6511 105.654 62.6028 105.68 62.5593C105.707 62.5158 105.742 62.4778 105.783 62.4477C105.824 62.4176 105.87 62.3959 105.92 62.3837C105.97 62.3716 106.021 62.3693 106.071 62.377C106.122 62.3847 106.17 62.4023 106.214 62.4287C106.258 62.4551 106.296 62.4897 106.326 62.5308C106.356 62.5718 106.378 62.6184 106.39 62.6678C106.402 62.7172 106.404 62.7686 106.397 62.8189L103.224 89.5265C103.212 89.6158 103.232 89.7065 103.28 89.7827C103.328 89.8589 103.401 89.9158 103.487 89.9437C103.573 89.9716 103.666 89.9687 103.75 89.9354C103.834 89.9021 103.904 89.8405 103.947 89.7614L117.11 66.2699C117.157 66.1787 117.238 66.1098 117.336 66.0783C117.433 66.0468 117.54 66.0554 117.631 66.1021C117.723 66.1488 117.792 66.2299 117.823 66.3275C117.855 66.425 117.846 66.5311 117.799 66.6223L106.509 91.0647C106.468 91.1463 106.458 91.2395 106.48 91.3279C106.502 91.4163 106.554 91.4942 106.628 91.5478C106.702 91.6013 106.792 91.6271 106.883 91.6206C106.974 91.6141 107.06 91.5756 107.125 91.5121L126.915 73.2503C126.952 73.2135 126.995 73.1844 127.043 73.1645C127.091 73.1446 127.143 73.1344 127.195 73.1344C127.247 73.1344 127.299 73.1446 127.347 73.1645C127.395 73.1844 127.439 73.2135 127.475 73.2503C127.512 73.287 127.541 73.3306 127.561 73.3786C127.581 73.4265 127.592 73.478 127.592 73.5299C127.592 73.5819 127.581 73.6333 127.561 73.6813C127.541 73.7293 127.512 73.7728 127.475 73.8096L109.144 93.5425C109.08 93.6077 109.041 93.6933 109.035 93.7841C109.028 93.8749 109.054 93.9651 109.108 94.0387C109.162 94.1123 109.24 94.1647 109.328 94.1864C109.417 94.2082 109.51 94.198 109.592 94.1577L134.068 82.8874C134.16 82.8414 134.267 82.8338 134.365 82.8663C134.463 82.8989 134.543 82.9688 134.589 83.0608C134.636 83.1527 134.643 83.2592 134.611 83.3568C134.578 83.4543 134.508 83.5349 134.416 83.5809L110.87 96.7138C110.791 96.7569 110.729 96.8263 110.696 96.9101C110.663 96.9938 110.66 97.0865 110.688 97.1722C110.715 97.2578 110.773 97.331 110.849 97.3791C110.925 97.4272 111.016 97.4471 111.106 97.4353L137.869 94.2696C137.967 94.2595 138.066 94.2873 138.144 94.3472C138.222 94.4071 138.275 94.4946 138.29 94.5919C138.306 94.6891 138.284 94.7886 138.229 94.8701C138.173 94.9516 138.089 95.0089 137.992 95.0302L111.554 100.271C111.464 100.287 111.383 100.333 111.324 100.403C111.265 100.472 111.233 100.56 111.233 100.651C111.233 100.742 111.265 100.831 111.324 100.9C111.383 100.97 111.464 101.016 111.554 101.032L137.992 106.267C138.094 106.283 138.185 106.339 138.246 106.423C138.306 106.506 138.331 106.61 138.315 106.712C138.298 106.813 138.242 106.904 138.159 106.965C138.075 107.025 137.971 107.05 137.869 107.033L111.151 103.868C111.061 103.856 110.97 103.876 110.894 103.924C110.817 103.972 110.76 104.045 110.732 104.131C110.704 104.216 110.707 104.309 110.741 104.393C110.774 104.477 110.836 104.546 110.915 104.589L134.461 117.722C134.546 117.771 134.609 117.851 134.637 117.946C134.665 118.04 134.655 118.141 134.611 118.229C134.567 118.317 134.491 118.384 134.398 118.418C134.305 118.452 134.203 118.449 134.113 118.41L109.637 107.145C109.555 107.105 109.462 107.095 109.373 107.116C109.284 107.138 109.206 107.191 109.153 107.264C109.099 107.338 109.073 107.428 109.08 107.519C109.086 107.61 109.125 107.695 109.188 107.76L127.492 127.504C127.567 127.579 127.608 127.679 127.608 127.784C127.608 127.889 127.567 127.99 127.492 128.064C127.418 128.138 127.317 128.18 127.212 128.18C127.107 128.18 127.006 128.138 126.932 128.064L107.142 109.802C107.077 109.738 106.991 109.7 106.9 109.693C106.809 109.687 106.719 109.713 106.645 109.766C106.571 109.82 106.519 109.898 106.497 109.986C106.475 110.075 106.485 110.168 106.526 110.249L117.816 134.669C117.863 134.761 117.872 134.867 117.84 134.964C117.808 135.062 117.739 135.143 117.648 135.19C117.557 135.236 117.45 135.245 117.352 135.213C117.255 135.182 117.173 135.113 117.127 135.022L103.964 111.53C103.92 111.451 103.851 111.39 103.767 111.356C103.683 111.323 103.59 111.32 103.504 111.348C103.418 111.376 103.345 111.433 103.297 111.509C103.249 111.585 103.229 111.676 103.24 111.765L106.413 138.467C106.43 138.569 106.405 138.673 106.345 138.756C106.284 138.84 106.193 138.896 106.091 138.912C105.989 138.928 105.885 138.903 105.801 138.843C105.718 138.783 105.662 138.692 105.645 138.59L100.398 112.213C100.383 112.123 100.336 112.042 100.266 111.983C100.196 111.924 100.108 111.892 100.017 111.892C99.9257 111.892 99.8374 111.924 99.7677 111.983C99.6979 112.042 99.6512 112.123 99.6357 112.213L94.3828 138.59C94.3614 138.686 94.304 138.771 94.2223 138.826C94.1406 138.881 94.0409 138.903 93.9434 138.888C93.846 138.872 93.7582 138.82 93.6982 138.741C93.6381 138.663 93.6103 138.565 93.6204 138.467L96.7934 111.765C96.8052 111.676 96.7852 111.585 96.7371 111.509C96.6889 111.433 96.6155 111.376 96.5297 111.348C96.4438 111.32 96.3509 111.323 96.267 111.356C96.183 111.39 96.1135 111.451 96.0702 111.53L82.9072 135.022C82.8541 135.102 82.7732 135.16 82.6801 135.184C82.587 135.209 82.488 135.198 82.4022 135.155C82.3163 135.111 82.2495 135.038 82.2144 134.948C82.1793 134.859 82.1785 134.759 82.2121 134.669L93.5083 110.249C93.5487 110.168 93.5589 110.075 93.5371 109.986C93.5153 109.898 93.4628 109.82 93.389 109.766C93.3152 109.713 93.2248 109.687 93.1338 109.693C93.0428 109.7 92.957 109.738 92.8916 109.802L73.1022 128.064C73.0279 128.138 72.927 128.18 72.8219 128.18C72.7168 128.18 72.616 128.138 72.5416 128.064C72.4673 127.99 72.4255 127.889 72.4255 127.784C72.4255 127.679 72.4673 127.579 72.5416 127.504L90.8398 107.783C90.9035 107.718 90.942 107.632 90.9485 107.541C90.955 107.45 90.9292 107.36 90.8755 107.287C90.8218 107.213 90.7438 107.161 90.6552 107.139C90.5666 107.117 90.4731 107.127 90.3913 107.168L65.9152 118.41C65.8238 118.457 65.7175 118.465 65.6197 118.434C65.522 118.402 65.4407 118.333 65.3939 118.242C65.347 118.151 65.3385 118.045 65.37 117.947C65.4015 117.85 65.4706 117.769 65.5621 117.722L89.1075 104.589C89.1868 104.546 89.2485 104.477 89.2819 104.393C89.3152 104.309 89.3182 104.216 89.2902 104.131C89.2623 104.045 89.2052 103.972 89.1288 103.924C89.0524 103.876 88.9616 103.856 88.8721 103.868L62.1031 107.033C62.0527 107.041 62.0012 107.039 61.9517 107.027C61.9021 107.014 61.8555 106.993 61.8143 106.963C61.7732 106.932 61.7384 106.895 61.712 106.851C61.6856 106.808 61.668 106.759 61.6602 106.709C61.6525 106.659 61.6548 106.607 61.667 106.558C61.6791 106.508 61.7009 106.462 61.7311 106.421C61.7613 106.38 61.7993 106.345 61.8429 106.319C61.8866 106.292 61.935 106.275 61.9854 106.267L88.4012 101.032C88.491 101.016 88.5726 100.97 88.6314 100.9C88.6901 100.831 88.7224 100.742 88.7224 100.651C88.7224 100.56 88.6901 100.472 88.6314 100.403C88.5726 100.333 88.491 100.287 88.4012 100.271L61.963 95.0302C61.8679 95.0082 61.7847 94.9512 61.7301 94.8705C61.6754 94.7899 61.6533 94.6916 61.6682 94.5954C61.6831 94.4992 61.7339 94.4122 61.8104 94.3518C61.8869 94.2913 61.9834 94.262 62.0807 94.2696L88.8496 97.4353C88.9392 97.4471 89.03 97.4272 89.1064 97.3791C89.1827 97.331 89.2399 97.2578 89.2678 97.1722C89.2958 97.0865 89.2928 96.9938 89.2594 96.9101C89.2261 96.8263 89.1644 96.7569 89.0851 96.7138L65.5396 83.5809C65.4593 83.5279 65.4013 83.4473 65.3767 83.3543C65.3521 83.2614 65.3626 83.1627 65.4063 83.077C65.4499 82.9913 65.5236 82.9247 65.6133 82.8897C65.703 82.8547 65.8025 82.8539 65.8928 82.8874L90.3689 94.1577C90.4507 94.198 90.5442 94.2082 90.6328 94.1864C90.7214 94.1647 90.7994 94.1123 90.8531 94.0387C90.9068 93.9651 90.9326 93.8749 90.9261 93.7841C90.9195 93.6933 90.881 93.6077 90.8174 93.5425L72.536 73.7984C72.4617 73.7242 72.4199 73.6236 72.4199 73.5187C72.4199 73.4138 72.4617 73.3132 72.536 73.2391C72.6103 73.1649 72.7112 73.1232 72.8163 73.1232C72.9214 73.1232 73.0223 73.1649 73.0966 73.2391L92.886 91.5121C92.9514 91.5756 93.0372 91.6141 93.1282 91.6206C93.2192 91.6271 93.3096 91.6013 93.3834 91.5478C93.4572 91.4942 93.5097 91.4163 93.5315 91.3279C93.5533 91.2395 93.5431 91.1463 93.5027 91.0647L82.1952 66.6447C82.1617 66.5546 82.1625 66.4553 82.1976 66.3658C82.2326 66.2763 82.2995 66.2028 82.3853 66.1592C82.4712 66.1157 82.5701 66.1052 82.6633 66.1297C82.7564 66.1543 82.8373 66.2121 82.8904 66.2923L96.0534 89.7838C96.0966 89.8629 96.1662 89.9244 96.2501 89.9577C96.334 89.991 96.427 89.994 96.5128 89.9661C96.5987 89.9382 96.6721 89.8812 96.7203 89.805C96.7684 89.7288 96.7884 89.6382 96.7766 89.5489L93.6036 62.8413C93.596 62.7442 93.6254 62.6479 93.686 62.5716C93.7465 62.4952 93.8338 62.4446 93.9302 62.4297C94.0266 62.4149 94.1251 62.4369 94.2059 62.4915C94.2868 62.546 94.3439 62.629 94.366 62.7238L99.6133 89.0791C99.6246 89.1727 99.67 89.2589 99.7407 89.3215C99.8115 89.3841 99.9028 89.4186 99.9973 89.4186C100.092 89.4186 100.183 89.3841 100.254 89.3215C100.325 89.2589 100.37 89.1727 100.381 89.0791Z" fill="#926A28"/>
<path d="M100 165.488L43.3789 132.857V67.6013L100 34.9705L156.621 67.6013V132.857L100 165.488ZM52.4215 127.639L100 155.046L147.579 127.639V72.8254L100 45.4186L52.4215 72.8254V127.639Z" fill="url(#paint1_linear)"/>
<path d="M100 161.601L46.7427 130.916V69.5477L100 38.8633L153.258 69.5477V130.916L100 161.601ZM55.2583 126.006L100 151.779L144.742 126.006V74.4585L100 48.685L55.2583 74.4585V126.006Z" fill="url(#paint2_linear)"/>
<path d="M100 149.939L56.8335 125.083V75.3758L100 50.5251L143.167 75.3758V125.083L100 149.939ZM59.9897 123.276L100 146.32L140.005 123.276V77.1824L100 54.1384L59.9897 77.1824V123.276Z" fill="#926A28"/>
<path d="M100 153.838L53.4697 127.035V73.4294L100 46.6211L146.53 73.4294V127.035L100 153.838ZM56.8334 125.083L100 149.939L143.167 125.083V75.3758L100 50.5252L56.8334 75.3758V125.083Z" fill="url(#paint3_linear)"/>
<path d="M52.4998 138.109L47.729 146.354L66.4589 151.902L80.8664 165.443L85.6372 157.199L52.4998 138.109Z" fill="url(#paint4_linear)"/>
<path d="M147.522 138.109L152.288 146.354L133.558 151.902L119.15 165.443L114.379 157.199L147.522 138.109Z" fill="url(#paint5_linear)"/>
<path d="M26.1738 86.4335H43.3508V72.8308L26.1738 86.4335Z" fill="url(#paint6_linear)"/>
<path d="M173.798 86.4335H156.621V72.8308L173.798 86.4335Z" fill="url(#paint7_linear)"/>
<path d="M26.1738 113.645L43.3508 127.253V113.645H26.1738Z" fill="url(#paint8_linear)"/>
<path d="M43.3508 86.4336H26.1738V113.645H43.3508V86.4336Z" fill="url(#paint9_linear)"/>
<path d="M173.826 113.645L156.644 127.253V113.645H173.826Z" fill="url(#paint10_linear)"/>
<path d="M156.649 113.65H173.826V86.4391H156.649V113.65Z" fill="url(#paint11_linear)"/>
<path d="M52.4216 57.2985L79.8576 41.7717V46.621L84.1014 44.0649V35.0095L48.6431 54.8599V64.5529L52.4216 62.3771V57.2985Z" fill="url(#paint12_linear)"/>
<path d="M56.8559 59.8265H56.8447H56.8559L68.354 53.2209L56.8559 59.8265Z" fill="url(#paint13_linear)"/>
<path d="M52.4214 62.3883V57.2985L79.8574 41.7717V46.621L56.8558 59.8266L52.4214 62.3883Z" fill="url(#paint14_linear)"/>
<path d="M142.331 59.3288L142.337 59.3344L142.331 59.3288L130.828 52.7288L142.331 59.3288Z" fill="url(#paint15_linear)"/>
<path d="M146.76 56.8007L119.324 41.2739V46.1232L115.08 43.5671V34.5117L150.539 54.3621V64.0551L146.76 61.8793V56.8007Z" fill="url(#paint16_linear)"/>
<path d="M146.67 61.8402V56.7504L119.234 41.2236V46.073L142.236 59.2785L146.67 61.8402Z" fill="url(#paint17_linear)"/>
<g style="mix-blend-mode:luminosity">
<path d="M103.545 67.1386L100.483 64.6448L95.3276 67.1386L91.4608 71.347L88.7217 76.3347L90.494 83.6604V87.557L88.7217 89.7391L86.7883 92.3888L88.0772 94.8827L91.4608 95.662V110.002L87.4328 114.054V117.639L83.0825 120.6L84.0492 126.212L83.0825 129.329L84.8548 131.979H115.145L116.596 130.42V124.341V120.6L112.729 117.639L111.762 114.054L107.573 107.508V100.338C106.928 99.9743 106.671 98.5299 110.795 95.662C114.92 92.7941 112.514 90.5184 110.795 89.7391C109.828 88.3883 108.153 85.2814 109.184 83.6604C110.215 82.0394 110.688 76.7503 110.795 74.3084L103.545 67.1386Z" fill="url(#paint18_linear)"/>
<g filter="url(#filter0_d)">
<path d="M118.207 121.702C118.207 120.343 117.512 119.085 116.348 118.338L113.821 116.72V114.956C113.821 113.344 112.842 111.91 111.395 111.27C110.923 110.305 110.405 109.759 109.917 109.322C109.874 109.167 109.795 108.794 109.708 107.96C109.433 105.34 109.378 100.293 109.46 97.3594L110.904 96.9881C112.644 96.5411 113.968 95.1499 114.276 93.446C114.645 91.4013 113.539 89.4227 111.654 88.5994C111.524 88.2415 111.346 87.902 111.127 87.5893C111.488 86.4009 111.314 85.0964 110.632 84.0301C110.993 83.2899 111.299 82.529 111.545 81.7558C112.007 80.3072 112.868 77.6116 111.941 74.475C111.68 73.5992 111.259 72.7687 110.688 72.0077L109.829 70.862L108.389 68.8406C108.23 68.6171 108.041 68.4155 107.826 68.2372C107.237 67.7511 106.617 67.2955 106.008 66.8986L105.91 66.8216C105.615 66.5908 105.088 66.1779 104.338 65.8628C104.255 65.6698 104.159 65.4842 104.049 65.3058C103.803 64.904 103.491 64.5437 103.118 64.2371C102.339 63.591 101.357 62.9302 99.9919 62.9302C98.6441 62.9302 97.6648 63.591 96.8841 64.2371C96.5144 64.5437 96.2021 64.9028 95.956 65.3034C95.8461 65.4829 95.7486 65.6698 95.6662 65.8628C94.9142 66.1791 94.3883 66.592 94.0936 66.8216L94.0423 66.8619L94.0199 66.8815C93.3866 67.2955 92.7657 67.7523 92.1774 68.2372C91.6215 68.6953 91.2456 69.3267 91.1044 70.0156C90.7547 70.2245 90.4461 70.5005 90.1975 70.8315L89.3144 72.0077C88.7436 72.7687 88.3201 73.6029 88.0553 74.4921C87.1347 77.6091 87.9941 80.306 88.4563 81.7546C88.7023 82.5278 89.0084 83.2899 89.3694 84.0289C88.6886 85.094 88.5162 86.3972 88.876 87.5856C88.6561 87.8983 88.4788 88.2391 88.3476 88.5982C86.4627 89.4202 85.3559 91.3989 85.7257 93.4448C86.0342 95.1486 87.357 96.5386 89.0971 96.9869L90.5411 97.3582C90.6235 100.292 90.5698 105.339 90.2937 107.959C90.2063 108.792 90.1263 109.164 90.0826 109.319C89.608 109.745 89.0846 110.288 88.6074 111.262C87.1584 111.899 86.1791 113.334 86.1791 114.954V116.718L83.6509 118.337C82.488 119.083 81.7935 120.34 81.7935 121.7V124.318C81.7935 125 81.9721 125.668 82.3043 126.258C81.9733 126.844 81.7935 127.511 81.7935 128.201V129.36C81.7935 131.577 83.6384 133.381 85.9056 133.381H114.089C116.357 133.381 118.202 131.577 118.202 129.36V128.201C118.202 127.51 118.023 126.844 117.691 126.258C118.023 125.667 118.202 124.999 118.202 124.318V121.702H118.207ZM115.019 124.321C115.019 124.532 114.943 124.737 114.805 124.9L114.027 125.813C113.696 126.202 113.756 126.782 114.159 127.097L114.673 127.499C114.893 127.67 115.02 127.93 115.02 128.205V129.364C115.02 129.864 114.607 130.268 114.096 130.268H101.106H98.9002H85.9106C85.3997 130.268 84.9862 129.864 84.9862 129.364V128.205C84.9862 127.93 85.1136 127.671 85.3335 127.499L85.8469 127.097C86.2516 126.781 86.3103 126.202 85.9793 125.813L85.2011 124.9C85.0624 124.737 84.9875 124.532 84.9875 124.321V121.702C84.9875 121.398 85.1448 121.113 85.4047 120.946L88.9547 118.672C89.2157 118.505 89.3719 118.221 89.3719 117.916V114.955C89.3719 114.457 89.7753 114.027 90.285 114.033C90.6522 114.038 90.9882 113.829 91.1394 113.502C92.1012 110.508 93.0156 112.614 93.4715 108.279C93.8163 104.994 93.8275 98.5393 93.6826 95.9853C93.6938 95.8974 93.7288 95.5395 93.4877 95.1902C93.3316 94.9642 93.093 94.7908 92.8057 94.7175L89.914 93.9736C89.3881 93.8381 88.9659 93.4289 88.871 92.9049C88.7473 92.2172 89.1745 91.5662 89.8428 91.3806L91.5828 90.8945L91.4567 90.6819C91.1319 90.1384 91.2755 89.4422 91.7914 89.0648L91.9513 88.9475C92.105 88.8351 92.2386 88.6971 92.3273 88.531C92.5796 88.0608 92.5022 87.5221 92.1837 87.1472L92.1762 87.1386C91.7764 86.6708 91.7852 85.988 92.1949 85.5288L92.7333 84.9266C92.9356 84.7007 93.0468 84.4112 93.0468 84.1107C92.2236 82.8172 91.7664 81.652 91.5041 80.8288C91.0707 79.4706 90.4798 77.5334 91.1219 75.3605C91.1231 75.3568 91.1244 75.352 91.1256 75.3483C91.2855 74.8097 91.5491 74.3064 91.8876 73.8557L92.7707 72.6795L96.4681 76.2949L98.2506 74.5519L94.2335 70.6251C94.8243 70.1377 95.3602 69.7603 95.7936 69.477C96.1596 69.2376 96.5756 68.7722 97.3088 68.6061C97.5199 68.5585 97.7198 68.4717 97.8934 68.3447L97.9034 68.3374C98.2319 68.0968 98.4505 67.7425 98.5254 67.3468C98.5517 67.2076 98.6016 67.0573 98.6928 66.9083C98.7603 66.7984 98.8477 66.6995 98.9476 66.6164C99.6397 66.0436 99.8832 66.0484 100.003 66.0484C100.123 66.0484 100.367 66.0436 101.059 66.6164C101.159 66.6995 101.246 66.7984 101.313 66.9083C101.405 67.0561 101.453 67.2063 101.481 67.3468C101.556 67.7413 101.774 68.0968 102.103 68.3374L102.113 68.3447C102.287 68.4717 102.486 68.5585 102.698 68.6061C103.431 68.7722 103.847 69.2376 104.213 69.477C104.645 69.7591 105.182 70.1377 105.773 70.6251L107.237 72.6795L108.12 73.8557C108.46 74.3076 108.722 74.8109 108.882 75.3483C108.883 75.352 108.884 75.3568 108.886 75.3605C109.528 77.5334 108.937 79.4706 108.503 80.8288C108.241 81.6508 107.784 82.8172 106.961 84.1107C106.961 84.4112 107.072 84.7007 107.274 84.9266L107.813 85.5288C108.224 85.988 108.231 86.6708 107.831 87.1386L107.824 87.1472C107.504 87.5221 107.428 88.0608 107.68 88.531C107.769 88.6971 107.904 88.8351 108.056 88.9475L108.216 89.0648C108.731 89.4422 108.876 90.1384 108.551 90.6819L108.425 90.8945L110.165 91.3806C110.833 91.5675 111.261 92.2172 111.137 92.9049C111.042 93.4289 110.619 93.8393 110.094 93.9736L107.202 94.7175C106.913 94.792 106.676 94.9642 106.52 95.1902C106.279 95.5395 106.314 95.8974 106.325 95.9853C106.18 98.5393 106.191 104.996 106.536 108.279C106.991 112.614 107.906 110.508 108.868 113.502C109.019 113.829 109.354 114.038 109.723 114.033C110.232 114.027 110.636 114.457 110.636 114.955V117.916C110.636 118.22 110.793 118.505 111.053 118.672L114.603 120.946C114.864 121.113 115.02 121.397 115.02 121.702V124.321H115.019Z" fill="url(#paint19_linear)"/>
</g>
<path d="M115.089 124.896C115.23 124.734 115.307 124.528 115.307 124.317V121.699C115.307 121.394 115.146 121.11 114.881 120.943L111.263 118.668C110.997 118.501 110.838 118.218 110.838 117.912V114.952C110.838 114.453 110.426 114.024 109.907 114.03C109.533 114.035 109.19 113.826 109.036 113.498C108.056 110.505 107.124 112.61 106.659 108.276C106.308 104.992 106.296 98.5367 106.444 95.9828C106.432 95.8949 106.397 95.537 106.643 95.1877C106.802 94.9618 107.045 94.7884 107.338 94.7151L110.285 93.9713C110.821 93.8357 111.252 93.4265 111.348 92.9026C111.474 92.215 111.039 91.564 110.358 91.3783L108.584 90.8922L108.713 90.6797C109.044 90.1362 108.897 89.44 108.372 89.0626L108.209 88.9454C108.052 88.833 107.916 88.695 107.825 88.5289C107.568 88.0587 107.647 87.5201 107.972 87.1451L107.979 87.1365C108.387 86.6688 108.378 85.986 107.96 85.5268L107.412 84.9247C107.205 84.6987 107.092 84.4093 107.092 84.1088C107.931 82.8154 108.397 81.6502 108.664 80.827C109.106 79.4689 109.708 77.5318 109.054 75.359C109.053 75.3553 109.051 75.3504 109.05 75.3468C108.887 74.8082 108.619 74.305 108.274 73.8543L107.373 72.6781L105.881 70.6238C105.279 70.1365 104.733 69.7591 104.291 69.4757C103.918 69.2363 103.494 68.771 102.747 68.6049C102.531 68.5573 102.328 68.4705 102.151 68.3435L102.141 68.3362C101.806 68.0956 101.583 67.7414 101.506 67.3457C101.48 67.2064 101.429 67.0562 101.336 66.9072C101.267 66.7973 101.178 66.6983 101.076 66.6153C100.371 66.0425 100.122 66.0474 100 66.0474C99.878 66.0474 99.6298 66.0425 98.9244 66.6153C98.8225 66.6983 98.7334 66.7973 98.6647 66.9072C98.5717 67.055 98.5221 67.2052 98.4941 67.3457C98.4177 67.7402 98.1949 68.0956 97.86 68.3362L97.8498 68.3435C97.6728 68.4705 97.4691 68.5573 97.254 68.6049C96.5066 68.771 96.0826 69.2363 95.7096 69.4757C95.269 69.7578 94.7216 70.1365 94.1193 70.6238L98.214 74.5505L96.3971 76.2933L92.6284 72.6781L91.7283 73.8543C91.3832 74.3062 91.1146 74.8094 90.9516 75.3468C90.9504 75.3504 90.9491 75.3553 90.9478 75.359C90.2934 77.5318 90.8956 79.4689 91.3374 80.827C91.6048 81.649 92.0708 82.8154 92.9098 84.1088C92.9098 84.4093 92.7965 84.6987 92.5902 84.9247L92.0415 85.5268C91.6226 85.986 91.615 86.6688 92.0224 87.1365L92.03 87.1451C92.356 87.5201 92.4336 88.0587 92.1764 88.5289C92.086 88.695 91.9485 88.833 91.7932 88.9454L91.6302 89.0626C91.1057 89.44 90.958 90.1362 91.289 90.6797L91.4176 90.8922L89.6441 91.3783C88.9629 91.5652 88.5262 92.215 88.6535 92.9026C88.7503 93.4265 89.1806 93.8369 89.7166 93.9713L92.6641 94.7151C92.9582 94.7896 93.2001 94.9618 93.3592 95.1877C93.605 95.537 93.5693 95.8949 93.5579 95.9828C93.7056 98.5367 93.6941 104.993 93.3427 108.276C92.8792 112.61 91.946 110.505 90.9656 113.498C90.8116 113.826 90.4704 114.035 90.0948 114.03C89.5766 114.024 89.1641 114.453 89.1641 114.952V117.912C89.1641 118.216 89.0036 118.501 88.7388 118.668L85.1204 120.943C84.8543 121.11 84.6951 121.393 84.6951 121.699V124.317C84.6951 124.528 84.7728 124.734 84.9128 124.896L85.706 125.81C86.0434 126.198 85.9823 126.778 85.5711 127.093L85.0478 127.495C84.8237 127.666 84.6938 127.926 84.6938 128.201V129.36C84.6938 129.86 85.1153 130.264 85.636 130.264H98.8748H101.126H114.364C114.885 130.264 115.307 129.86 115.307 129.36V128.201C115.307 127.926 115.177 127.667 114.953 127.495L114.429 127.093C114.017 126.777 113.956 126.198 114.294 125.81L115.089 124.896ZM99.1905 74.548C99.1905 74.3001 99.0874 74.0619 98.9053 73.8873L95.5848 70.702C95.8051 70.5456 96.0279 70.3942 96.2532 70.2501C96.3691 70.1756 96.4913 70.084 96.6212 69.9838C96.886 69.7811 97.1356 69.5881 97.4755 69.5136C97.8307 69.4354 98.1541 69.2925 98.4355 69.0898C98.9715 68.7038 99.3306 68.1481 99.4528 67.5167C99.463 67.4641 99.4782 67.4238 99.5012 67.3872C99.5075 67.3762 99.5241 67.353 99.5559 67.3286C99.7775 67.1478 99.9213 67.0562 100.002 67.0098C100.082 67.0562 100.226 67.1478 100.447 67.3286C100.47 67.3469 100.489 67.3677 100.501 67.386C100.524 67.4226 100.539 67.4641 100.549 67.5154C100.671 68.1469 101.03 68.7038 101.557 69.0824C101.849 69.2925 102.172 69.4342 102.528 69.5136C102.868 69.5893 103.117 69.7811 103.382 69.9838C103.512 70.084 103.633 70.1756 103.75 70.2501C104.231 70.5591 104.703 70.8974 105.155 71.2577L106.573 73.2094L107.487 74.4039C107.776 74.7813 107.986 75.1856 108.113 75.6045C108.703 77.5635 108.119 79.3577 107.734 80.5461C107.387 81.6111 106.893 82.642 106.264 83.6117C106.168 83.7595 106.117 83.9317 106.117 84.1064C106.117 84.6328 106.315 85.1408 106.677 85.5378L107.226 86.1399C107.329 86.2535 107.331 86.4196 107.231 86.5356C106.634 87.222 106.532 88.171 106.962 88.96C107.114 89.2385 107.336 89.484 107.624 89.6916L107.787 89.8089C107.917 89.9017 107.953 90.0727 107.871 90.207L107.743 90.4183C107.591 90.6675 107.568 90.9704 107.68 91.2379C107.792 91.5053 108.028 91.7093 108.317 91.7887L110.09 92.2748C110.299 92.3322 110.426 92.5301 110.388 92.7377C110.36 92.8879 110.22 93.0186 110.037 93.065L107.089 93.8088C106.576 93.9383 106.131 94.2412 105.834 94.6626C105.474 95.1731 105.441 95.6897 105.466 96.0012C105.313 98.7602 105.339 105.1 105.689 108.371C105.973 111.024 106.468 111.631 107.193 112.255C107.502 112.521 107.769 112.751 108.105 113.779C108.117 113.815 108.131 113.85 108.147 113.884C108.452 114.532 109.121 114.953 109.859 114.965L109.861 117.912C109.861 118.534 110.185 119.109 110.727 119.45L114.347 121.724L114.331 124.317L113.546 125.211C113.214 125.593 113.059 126.077 113.112 126.573C113.164 127.069 113.416 127.513 113.822 127.824L114.345 128.225L114.334 129.328H85.6704V128.2L86.1809 127.824C86.5871 127.512 86.8392 127.068 86.8914 126.572C86.9436 126.076 86.7895 125.592 86.4572 125.21L85.664 124.296L85.6717 121.697L89.2761 119.449C89.8185 119.108 90.1419 118.533 90.1419 117.911V114.963C90.8931 114.943 91.5538 114.523 91.8556 113.882C91.8721 113.848 91.8862 113.812 91.8976 113.777C92.2337 112.75 92.5011 112.519 92.8105 112.253C93.5349 111.63 94.0302 111.023 94.3141 108.369C94.6643 105.098 94.6885 98.7578 94.537 95.9987C94.5611 95.6873 94.528 95.1706 94.169 94.6601C93.8723 94.2387 93.4267 93.9358 92.9149 93.8064L89.9674 93.0626C89.7854 93.0162 89.644 92.8855 89.616 92.7353C89.5778 92.5288 89.7064 92.3298 89.914 92.2724L91.6875 91.7863C91.9766 91.7069 92.2121 91.5041 92.3241 91.2354C92.4362 90.9679 92.4133 90.665 92.2617 90.4159L92.1332 90.2034C92.0517 90.0702 92.0886 89.8993 92.2172 89.8052L92.3802 89.688C92.6679 89.4816 92.8907 89.2348 93.0422 88.9576C93.4738 88.1674 93.3707 87.2196 92.7812 86.5405C92.673 86.4159 92.6755 86.2498 92.7787 86.1363L93.3274 85.5341C93.689 85.1372 93.8876 84.6291 93.8876 84.1027C93.8876 83.928 93.8367 83.7571 93.7399 83.608C93.111 82.6383 92.617 81.6075 92.2707 80.5424C91.8849 79.3553 91.3005 77.5599 91.8874 75.613C92.0186 75.1819 92.2286 74.7789 92.5177 74.4015L92.7456 74.1034L95.7121 76.9492C95.9018 77.1312 96.1514 77.2228 96.4009 77.2228C96.6505 77.2228 96.9 77.1312 97.0897 76.9492" fill="url(#paint20_radial)"/>
</g>
<path d="M6 1H194V-1H6V1ZM199 6V194H201V6H199ZM194 199H5.99999V201H194V199ZM1 194V5.99999H-1V194H1ZM5.99999 199C3.23857 199 1 196.761 1 194H-1C-1 197.866 2.134 201 5.99999 201V199ZM199 194C199 196.761 196.761 199 194 199V201C197.866 201 201 197.866 201 194H199ZM194 1C196.761 1 199 3.23858 199 6H201C201 2.13401 197.866 -1 194 -1V1ZM6 -1C2.13401 -1 -1 2.134 -1 5.99999H1C1 3.23857 3.23858 1 6 1V-1Z" fill="#F16A50"/>
<defs>
<filter id="filter0_d" x="77.7935" y="62.9302" width="44.4132" height="78.4512" filterUnits="userSpaceOnUse" color-interpolation-filters="sRGB">
<feFlood flood-opacity="0" result="BackgroundImageFix"/>
<feColorMatrix in="SourceAlpha" type="matrix" values="0 0 0 0 0 0 0 0 0 0 0 0 0 0 0 0 0 0 127 0" result="hardAlpha"/>
<feOffset dy="4"/>
<feGaussianBlur stdDeviation="2"/>
<feColorMatrix type="matrix" values="0 0 0 0 0 0 0 0 0 0 0 0 0 0 0 0 0 0 0.25 0"/>
<feBlend mode="normal" in2="BackgroundImageFix" result="effect1_dropShadow"/>
<feBlend mode="normal" in="SourceGraphic" in2="effect1_dropShadow" result="shape"/>
</filter>
<linearGradient id="paint0_linear" x1="124.751" y1="140.934" x2="67.0453" y2="45.5975" gradientUnits="userSpaceOnUse">
<stop stop-color="#A57A2C"/>
<stop offset="1" stop-color="#F6E948"/>
</linearGradient>
<linearGradient id="paint1_linear" x1="100" y1="165.488" x2="100" y2="34.9705" gradientUnits="userSpaceOnUse">
<stop stop-color="#6B4C1E"/>
<stop offset="1" stop-color="#A57A2C"/>
</linearGradient>
<linearGradient id="paint2_linear" x1="127.005" y1="140.498" x2="58.8048" y2="38.344" gradientUnits="userSpaceOnUse">
<stop offset="0.03" stop-color="#EED366"/>
<stop offset="1" stop-color="#FFEEC7"/>
</linearGradient>
<linearGradient id="paint3_linear" x1="124.19" y1="138.685" x2="67.2522" y2="47.762" gradientUnits="userSpaceOnUse">
<stop stop-color="#FFEEC7"/>
<stop offset="0.41" stop-color="#EED366"/>
<stop offset="1" stop-color="#926A28"/>
</linearGradient>
<linearGradient id="paint4_linear" x1="71.2955" y1="150.616" x2="64.1147" y2="163.832" gradientUnits="userSpaceOnUse">
<stop stop-color="#926A28"/>
<stop offset="0.119792" stop-color="#A17D2D"/>
<stop offset="0.25" stop-color="#BB9E35"/>
<stop offset="0.385417" stop-color="#D0B93C"/>
<stop offset="0.505208" stop-color="#E1CF41"/>
<stop offset="0.635417" stop-color="#EDDD45"/>
<stop offset="0.833333" stop-color="#F4E647"/>
<stop offset="1" stop-color="#F6E948"/>
</linearGradient>
<linearGradient id="paint5_linear" x1="129.634" y1="147.915" x2="139.289" y2="164.913" gradientUnits="userSpaceOnUse">
<stop stop-color="#926A28"/>
<stop offset="0.119792" stop-color="#A17D2D"/>
<stop offset="0.25" stop-color="#BB9E35"/>
<stop offset="0.385417" stop-color="#D0B93C"/>
<stop offset="0.505208" stop-color="#E1CF41"/>
<stop offset="0.635417" stop-color="#EDDD45"/>
<stop offset="0.833333" stop-color="#F4E647"/>
<stop offset="1" stop-color="#F6E948"/>
</linearGradient>
<linearGradient id="paint6_linear" x1="26.1738" y1="79.6322" x2="43.3564" y2="79.6322" gradientUnits="userSpaceOnUse">
<stop stop-color="#FFEEC7"/>
<stop offset="0.24" stop-color="#FDECC4"/>
<stop offset="0.4" stop-color="#F7E4BC"/>
<stop offset="0.54" stop-color="#EDD8AD"/>
<stop offset="0.66" stop-color="#DEC697"/>
<stop offset="0.77" stop-color="#CCB07C"/>
<stop offset="0.88" stop-color="#B4945A"/>
<stop offset="0.98" stop-color="#9A7333"/>
<stop offset="1" stop-color="#926A28"/>
</linearGradient>
<linearGradient id="paint7_linear" x1="173.798" y1="79.6322" x2="156.616" y2="79.6322" gradientUnits="userSpaceOnUse">
<stop stop-color="#FFEEC7"/>
<stop offset="0.24" stop-color="#FDECC4"/>
<stop offset="0.4" stop-color="#F7E4BC"/>
<stop offset="0.54" stop-color="#EDD8AD"/>
<stop offset="0.66" stop-color="#DEC697"/>
<stop offset="0.77" stop-color="#CCB07C"/>
<stop offset="0.88" stop-color="#B4945A"/>
<stop offset="0.98" stop-color="#9A7333"/>
<stop offset="1" stop-color="#926A28"/>
</linearGradient>
<linearGradient id="paint8_linear" x1="26.1738" y1="120.451" x2="43.3564" y2="120.451" gradientUnits="userSpaceOnUse">
<stop stop-color="#926A28"/>
<stop offset="0.39" stop-color="#8F6827"/>
<stop offset="0.65" stop-color="#876125"/>
<stop offset="0.87" stop-color="#785621"/>
<stop offset="1" stop-color="#6B4C1E"/>
</linearGradient>
<linearGradient id="paint9_linear" x1="26.1738" y1="100.042" x2="43.3564" y2="100.042" gradientUnits="userSpaceOnUse">
<stop stop-color="#EBCC80"/>
<stop offset="0.29" stop-color="#E9C97E"/>
<stop offset="0.47" stop-color="#E1C176"/>
<stop offset="0.63" stop-color="#D3B268"/>
<stop offset="0.78" stop-color="#C09C55"/>
<stop offset="0.91" stop-color="#A7813D"/>
<stop offset="1" stop-color="#926A28"/>
</linearGradient>
<linearGradient id="paint10_linear" x1="21858" y1="2204.56" x2="21331.6" y2="2204.56" gradientUnits="userSpaceOnUse">
<stop stop-color="#926A28"/>
<stop offset="0.39" stop-color="#8F6827"/>
<stop offset="0.65" stop-color="#876125"/>
<stop offset="0.87" stop-color="#785621"/>
<stop offset="1" stop-color="#6B4C1E"/>
</linearGradient>
<linearGradient id="paint11_linear" x1="173.826" y1="100.042" x2="156.644" y2="100.042" gradientUnits="userSpaceOnUse">
<stop stop-color="#EBCC80"/>
<stop offset="0.29" stop-color="#E9C97E"/>
<stop offset="0.47" stop-color="#E1C176"/>
<stop offset="0.63" stop-color="#D3B268"/>
<stop offset="0.78" stop-color="#C09C55"/>
<stop offset="0.91" stop-color="#A7813D"/>
<stop offset="1" stop-color="#926A28"/>
</linearGradient>
<linearGradient id="paint12_linear" x1="48.6431" y1="64.5529" x2="84.028" y2="32.4041" gradientUnits="userSpaceOnUse">
<stop stop-color="#EED366"/>
<stop offset="1" stop-color="#FFEEC7"/>
</linearGradient>
<linearGradient id="paint13_linear" x1="808.744" y1="319.69" x2="806.447" y2="308.47" gradientUnits="userSpaceOnUse">
<stop offset="0.03" stop-color="#EED366"/>
<stop offset="1" stop-color="#FFEEC7"/>
</linearGradient>
<linearGradient id="paint14_linear" x1="68.4267" y1="56.1016" x2="64.773" y2="49.6454" gradientUnits="userSpaceOnUse">
<stop stop-color="#EED366"/>
<stop offset="1" stop-color="#926A28"/>
</linearGradient>
<linearGradient id="paint15_linear" x1="1424.73" y1="313.385" x2="1427.03" y2="302.165" gradientUnits="userSpaceOnUse">
<stop offset="0.03" stop-color="#EED366"/>
<stop offset="1" stop-color="#FFEEC7"/>
</linearGradient>
<linearGradient id="paint16_linear" x1="150.539" y1="64.0551" x2="115.154" y2="31.9063" gradientUnits="userSpaceOnUse">
<stop stop-color="#EED366"/>
<stop offset="1" stop-color="#FFEEC7"/>
</linearGradient>
<linearGradient id="paint17_linear" x1="130.665" y1="55.5535" x2="134.319" y2="49.0973" gradientUnits="userSpaceOnUse">
<stop stop-color="#EED366"/>
<stop offset="1" stop-color="#926A28"/>
</linearGradient>
<linearGradient id="paint18_linear" x1="85.0601" y1="71.1815" x2="130.011" y2="94.6726" gradientUnits="userSpaceOnUse">
<stop offset="0.348958" stop-color="white"/>
<stop offset="1" stop-color="#E2E2E2"/>
</linearGradient>
<linearGradient id="paint19_linear" x1="92.3198" y1="61.452" x2="128.341" y2="119.327" gradientUnits="userSpaceOnUse">
<stop offset="0.427083" stop-color="white"/>
<stop offset="0.770833" stop-color="#E2E2E2"/>
</linearGradient>
<radialGradient id="paint20_radial" cx="0" cy="0" r="1" gradientUnits="userSpaceOnUse" gradientTransform="translate(90.5141 66.5229) scale(35.3326 74.117)">
<stop stop-color="white"/>
<stop offset="0.25" stop-color="#CECECE"/>
<stop offset="0.5" stop-color="white"/>
<stop offset="0.75" stop-color="#CECECE"/>
<stop offset="1" stop-color="white"/>
</radialGradient>
</defs>
</svg>
