<svg width="140" height="140" viewBox="0 0 140 140" fill="none" xmlns="http://www.w3.org/2000/svg">
<rect width="140" height="140" fill="white"/>
<path d="M70 18.8125C59.8761 18.8125 49.9795 21.8146 41.5618 27.4391C33.144 33.0637 26.5832 41.0581 22.7089 50.4114C18.8347 59.7647 17.821 70.0568 19.7961 79.9862C21.7712 89.9156 26.6463 99.0363 33.805 106.195C40.9637 113.354 50.0844 118.229 60.0138 120.204C69.9432 122.179 80.2353 121.165 89.5886 117.291C98.9419 113.417 106.936 106.856 112.561 98.4382C118.185 90.0205 121.188 80.1239 121.188 70C121.172 56.429 115.774 43.4184 106.178 33.8223C96.5816 24.2262 83.571 18.8282 70 18.8125V18.8125ZM87.7188 54.25C88.8869 54.25 90.0288 54.5964 91.0001 55.2454C91.9714 55.8944 92.7284 56.8168 93.1754 57.896C93.6225 58.9753 93.7394 60.1628 93.5115 61.3085C93.2836 62.4542 92.7211 63.5066 91.8951 64.3326C91.0691 65.1586 90.0167 65.7211 88.871 65.949C87.7253 66.1769 86.5378 66.0599 85.4586 65.6129C84.3793 65.1659 83.4569 64.4089 82.8079 63.4376C82.1589 62.4663 81.8125 61.3244 81.8125 60.1562C81.8126 58.5898 82.4349 57.0876 83.5425 55.98C84.6501 54.8724 86.1524 54.2501 87.7188 54.25V54.25ZM52.2813 54.25C53.4494 54.25 54.5913 54.5964 55.5626 55.2454C56.5339 55.8944 57.2909 56.8168 57.7379 57.896C58.185 58.9753 58.3019 60.1628 58.074 61.3085C57.8461 62.4542 57.2836 63.5066 56.4576 64.3326C55.6316 65.1586 54.5792 65.7211 53.4335 65.949C52.2878 66.1769 51.1003 66.0599 50.021 65.6129C48.9418 65.1659 48.0194 64.4089 47.3704 63.4376C46.7214 62.4663 46.375 61.3244 46.375 60.1562C46.3751 58.5898 46.9974 57.0876 48.105 55.98C49.2126 54.8724 50.7149 54.2501 52.2813 54.25V54.25ZM93.8711 83.7851C90.8669 88.9763 86.257 93.0505 80.7359 95.3938C74.543 98.0033 67.6108 98.2638 61.2395 96.1266C54.8682 93.9894 49.4955 89.6012 46.1289 83.7851C45.8699 83.3377 45.7015 82.8437 45.6334 82.3312C45.5653 81.8187 45.5988 81.2978 45.7319 80.7983C45.8651 80.2988 46.0954 79.8304 46.4096 79.4199C46.7238 79.0093 47.1158 78.6647 47.5632 78.4056C48.0106 78.1466 48.5046 77.9782 49.0171 77.9101C49.5296 77.842 50.0504 77.8755 50.55 78.0087C51.0495 78.1418 51.5179 78.3721 51.9284 78.6863C52.339 79.0005 52.6836 79.3925 52.9426 79.8399C55.0944 83.5512 58.392 86.4643 62.3404 88.1417C64.7684 89.1545 67.3731 89.676 70.0039 89.676C72.6347 89.676 75.2394 89.1545 77.6674 88.1417C80.0041 87.1505 82.1272 85.7169 83.9197 83.9197C85.1362 82.6999 86.1907 81.3287 87.0574 79.8399C87.3164 79.3925 87.6611 79.0005 88.0716 78.6863C88.4821 78.3721 88.9505 78.1418 89.4501 78.0087C89.9496 77.8755 90.4705 77.842 90.9829 77.9101C91.4954 77.9782 91.9895 78.1466 92.4369 78.4056C92.8842 78.6647 93.2762 79.0093 93.5904 79.4199C93.9047 79.8304 94.1349 80.2988 94.2681 80.7983C94.4013 81.2978 94.4348 81.8187 94.3667 82.3312C94.2985 82.8437 94.1302 83.3377 93.8711 83.7851Z" fill="black"/>
</svg>
