<svg width="200" height="200" viewBox="0 0 200 200" fill="none" xmlns="http://www.w3.org/2000/svg">
<path d="M0 5.99999C0 2.68629 2.68629 0 6 0H194C197.314 0 200 2.68629 200 6V194C200 197.314 197.314 200 194 200H5.99999C2.68629 200 0 197.314 0 194V5.99999Z" fill="#3E382C"/>
<path d="M51.6646 72.3889V128.069L100 155.913L148.335 128.069V72.3889L100 44.5459L51.6646 72.3889Z" fill="url(#paint0_linear)"/>
<path d="M100.381 89.0791L105.629 62.7014C105.636 62.6511 105.654 62.6028 105.68 62.5593C105.707 62.5158 105.742 62.4778 105.783 62.4477C105.824 62.4176 105.87 62.3959 105.92 62.3837C105.97 62.3716 106.021 62.3693 106.071 62.377C106.122 62.3847 106.17 62.4023 106.214 62.4287C106.258 62.4551 106.296 62.4897 106.326 62.5308C106.356 62.5718 106.378 62.6184 106.39 62.6678C106.402 62.7172 106.404 62.7686 106.397 62.8189L103.224 89.5265C103.212 89.6158 103.232 89.7065 103.28 89.7827C103.328 89.8589 103.401 89.9158 103.487 89.9437C103.573 89.9716 103.666 89.9687 103.75 89.9354C103.834 89.9021 103.904 89.8405 103.947 89.7614L117.11 66.2699C117.157 66.1787 117.238 66.1098 117.336 66.0783C117.433 66.0468 117.54 66.0554 117.631 66.1021C117.723 66.1488 117.792 66.2299 117.823 66.3275C117.855 66.425 117.846 66.5311 117.799 66.6223L106.509 91.0647C106.468 91.1463 106.458 91.2395 106.48 91.3279C106.502 91.4163 106.554 91.4942 106.628 91.5478C106.702 91.6013 106.792 91.6271 106.883 91.6206C106.974 91.6141 107.06 91.5756 107.125 91.5121L126.915 73.2503C126.952 73.2135 126.995 73.1844 127.043 73.1645C127.091 73.1446 127.143 73.1344 127.195 73.1344C127.247 73.1344 127.299 73.1446 127.347 73.1645C127.395 73.1844 127.439 73.2135 127.475 73.2503C127.512 73.287 127.541 73.3306 127.561 73.3786C127.581 73.4265 127.592 73.478 127.592 73.5299C127.592 73.5819 127.581 73.6333 127.561 73.6813C127.541 73.7293 127.512 73.7728 127.475 73.8096L109.144 93.5425C109.08 93.6077 109.041 93.6933 109.035 93.7841C109.028 93.8749 109.054 93.9651 109.108 94.0387C109.162 94.1123 109.24 94.1647 109.328 94.1864C109.417 94.2082 109.51 94.198 109.592 94.1577L134.068 82.8874C134.16 82.8414 134.267 82.8338 134.365 82.8663C134.463 82.8989 134.543 82.9688 134.589 83.0608C134.636 83.1527 134.643 83.2592 134.611 83.3568C134.578 83.4543 134.508 83.5349 134.416 83.5809L110.87 96.7138C110.791 96.7569 110.729 96.8263 110.696 96.9101C110.663 96.9938 110.66 97.0865 110.688 97.1722C110.715 97.2578 110.773 97.331 110.849 97.3791C110.925 97.4272 111.016 97.4471 111.106 97.4353L137.869 94.2696C137.967 94.2595 138.066 94.2873 138.144 94.3472C138.222 94.4071 138.275 94.4946 138.29 94.5919C138.306 94.6891 138.284 94.7886 138.229 94.8701C138.173 94.9516 138.089 95.0089 137.992 95.0302L111.554 100.271C111.464 100.287 111.383 100.333 111.324 100.403C111.265 100.472 111.233 100.56 111.233 100.651C111.233 100.742 111.265 100.831 111.324 100.9C111.383 100.97 111.464 101.016 111.554 101.032L137.992 106.267C138.094 106.283 138.185 106.339 138.246 106.423C138.306 106.506 138.331 106.61 138.315 106.712C138.298 106.813 138.242 106.904 138.159 106.965C138.075 107.025 137.971 107.05 137.869 107.033L111.151 103.868C111.061 103.856 110.97 103.876 110.894 103.924C110.817 103.972 110.76 104.045 110.732 104.131C110.704 104.216 110.707 104.309 110.741 104.393C110.774 104.477 110.836 104.546 110.915 104.589L134.461 117.722C134.546 117.771 134.609 117.851 134.637 117.946C134.665 118.04 134.655 118.141 134.611 118.229C134.567 118.317 134.491 118.384 134.398 118.418C134.305 118.452 134.203 118.449 134.113 118.41L109.637 107.145C109.555 107.105 109.462 107.095 109.373 107.116C109.284 107.138 109.206 107.191 109.153 107.264C109.099 107.338 109.073 107.428 109.08 107.519C109.086 107.61 109.125 107.695 109.188 107.76L127.492 127.504C127.567 127.579 127.608 127.679 127.608 127.784C127.608 127.889 127.567 127.99 127.492 128.064C127.418 128.138 127.317 128.18 127.212 128.18C127.107 128.18 127.006 128.138 126.932 128.064L107.142 109.802C107.077 109.738 106.991 109.7 106.9 109.693C106.809 109.687 106.719 109.713 106.645 109.766C106.571 109.82 106.519 109.898 106.497 109.986C106.475 110.075 106.485 110.168 106.526 110.249L117.816 134.669C117.863 134.761 117.872 134.867 117.84 134.964C117.808 135.062 117.739 135.143 117.648 135.19C117.557 135.236 117.45 135.245 117.352 135.213C117.255 135.182 117.173 135.113 117.127 135.022L103.964 111.53C103.92 111.451 103.851 111.39 103.767 111.356C103.683 111.323 103.59 111.32 103.504 111.348C103.418 111.376 103.345 111.433 103.297 111.509C103.249 111.585 103.229 111.676 103.24 111.765L106.413 138.467C106.43 138.569 106.405 138.673 106.345 138.756C106.284 138.84 106.193 138.896 106.091 138.912C105.989 138.928 105.885 138.903 105.801 138.843C105.718 138.783 105.662 138.692 105.645 138.59L100.398 112.213C100.383 112.123 100.336 112.042 100.266 111.983C100.196 111.924 100.108 111.892 100.017 111.892C99.9257 111.892 99.8374 111.924 99.7677 111.983C99.6979 112.042 99.6512 112.123 99.6357 112.213L94.3828 138.59C94.3614 138.686 94.304 138.771 94.2223 138.826C94.1406 138.881 94.0409 138.903 93.9434 138.888C93.846 138.872 93.7582 138.82 93.6982 138.741C93.6381 138.663 93.6103 138.565 93.6204 138.467L96.7934 111.765C96.8052 111.676 96.7852 111.585 96.7371 111.509C96.6889 111.433 96.6155 111.376 96.5297 111.348C96.4438 111.32 96.3509 111.323 96.267 111.356C96.183 111.39 96.1135 111.451 96.0702 111.53L82.9072 135.022C82.8541 135.102 82.7732 135.16 82.6801 135.184C82.587 135.209 82.488 135.198 82.4022 135.155C82.3163 135.111 82.2495 135.038 82.2144 134.948C82.1793 134.859 82.1785 134.759 82.2121 134.669L93.5083 110.249C93.5487 110.168 93.5589 110.075 93.5371 109.986C93.5153 109.898 93.4628 109.82 93.389 109.766C93.3152 109.713 93.2248 109.687 93.1338 109.693C93.0428 109.7 92.957 109.738 92.8916 109.802L73.1022 128.064C73.0279 128.138 72.927 128.18 72.8219 128.18C72.7168 128.18 72.616 128.138 72.5416 128.064C72.4673 127.99 72.4255 127.889 72.4255 127.784C72.4255 127.679 72.4673 127.579 72.5416 127.504L90.8398 107.783C90.9035 107.718 90.942 107.632 90.9485 107.541C90.955 107.45 90.9292 107.36 90.8755 107.287C90.8218 107.213 90.7438 107.161 90.6552 107.139C90.5666 107.117 90.4731 107.127 90.3913 107.168L65.9152 118.41C65.8238 118.457 65.7175 118.465 65.6197 118.434C65.522 118.402 65.4407 118.333 65.3939 118.242C65.347 118.151 65.3385 118.045 65.37 117.947C65.4015 117.85 65.4706 117.769 65.5621 117.722L89.1075 104.589C89.1868 104.546 89.2485 104.477 89.2819 104.393C89.3152 104.309 89.3182 104.216 89.2902 104.131C89.2623 104.045 89.2052 103.972 89.1288 103.924C89.0524 103.876 88.9616 103.856 88.8721 103.868L62.1031 107.033C62.0527 107.041 62.0012 107.039 61.9517 107.027C61.9021 107.014 61.8555 106.993 61.8143 106.963C61.7732 106.932 61.7384 106.895 61.712 106.851C61.6856 106.808 61.668 106.759 61.6602 106.709C61.6525 106.659 61.6548 106.607 61.667 106.558C61.6791 106.508 61.7009 106.462 61.7311 106.421C61.7613 106.38 61.7993 106.345 61.8429 106.319C61.8866 106.292 61.935 106.275 61.9854 106.267L88.4012 101.032C88.491 101.016 88.5726 100.97 88.6314 100.9C88.6901 100.831 88.7224 100.742 88.7224 100.651C88.7224 100.56 88.6901 100.472 88.6314 100.403C88.5726 100.333 88.491 100.287 88.4012 100.271L61.963 95.0302C61.8679 95.0082 61.7847 94.9512 61.7301 94.8705C61.6754 94.7899 61.6533 94.6916 61.6682 94.5954C61.6831 94.4992 61.7339 94.4122 61.8104 94.3518C61.8869 94.2913 61.9834 94.262 62.0807 94.2696L88.8496 97.4353C88.9392 97.4471 89.03 97.4272 89.1064 97.3791C89.1827 97.331 89.2399 97.2578 89.2678 97.1722C89.2958 97.0865 89.2928 96.9938 89.2594 96.9101C89.2261 96.8263 89.1644 96.7569 89.0851 96.7138L65.5396 83.5809C65.4593 83.5279 65.4013 83.4473 65.3767 83.3543C65.3521 83.2614 65.3626 83.1627 65.4063 83.077C65.4499 82.9913 65.5236 82.9247 65.6133 82.8897C65.703 82.8547 65.8025 82.8539 65.8928 82.8874L90.3689 94.1577C90.4507 94.198 90.5442 94.2082 90.6328 94.1864C90.7214 94.1647 90.7994 94.1123 90.8531 94.0387C90.9068 93.9651 90.9326 93.8749 90.9261 93.7841C90.9195 93.6933 90.881 93.6077 90.8174 93.5425L72.536 73.7984C72.4617 73.7242 72.4199 73.6236 72.4199 73.5187C72.4199 73.4138 72.4617 73.3132 72.536 73.2391C72.6103 73.1649 72.7112 73.1232 72.8163 73.1232C72.9214 73.1232 73.0223 73.1649 73.0966 73.2391L92.886 91.5121C92.9514 91.5756 93.0372 91.6141 93.1282 91.6206C93.2192 91.6271 93.3096 91.6013 93.3834 91.5478C93.4572 91.4942 93.5097 91.4163 93.5315 91.3279C93.5533 91.2395 93.5431 91.1463 93.5027 91.0647L82.1952 66.6447C82.1617 66.5546 82.1625 66.4553 82.1976 66.3658C82.2326 66.2763 82.2995 66.2028 82.3853 66.1592C82.4712 66.1157 82.5701 66.1052 82.6633 66.1297C82.7564 66.1543 82.8373 66.2121 82.8904 66.2923L96.0534 89.7838C96.0966 89.8629 96.1662 89.9244 96.2501 89.9577C96.334 89.991 96.427 89.994 96.5128 89.9661C96.5987 89.9382 96.6721 89.8812 96.7203 89.805C96.7684 89.7288 96.7884 89.6382 96.7766 89.5489L93.6036 62.8413C93.596 62.7442 93.6254 62.6479 93.686 62.5716C93.7465 62.4952 93.8338 62.4446 93.9302 62.4297C94.0266 62.4149 94.1251 62.4369 94.2059 62.4915C94.2868 62.546 94.3439 62.629 94.366 62.7238L99.6133 89.0791C99.6246 89.1727 99.67 89.2589 99.7407 89.3215C99.8115 89.3841 99.9028 89.4186 99.9973 89.4186C100.092 89.4186 100.183 89.3841 100.254 89.3215C100.325 89.2589 100.37 89.1727 100.381 89.0791Z" fill="#926A28"/>
<path d="M100 165.488L43.3789 132.857V67.6013L100 34.9705L156.621 67.6013V132.857L100 165.488ZM52.4215 127.639L100 155.046L147.579 127.639V72.8254L100 45.4186L52.4215 72.8254V127.639Z" fill="url(#paint1_linear)"/>
<path d="M100 161.601L46.7427 130.916V69.5477L100 38.8633L153.258 69.5477V130.916L100 161.601ZM55.2583 126.006L100 151.779L144.742 126.006V74.4585L100 48.685L55.2583 74.4585V126.006Z" fill="url(#paint2_linear)"/>
<path d="M100 149.939L56.8335 125.083V75.3758L100 50.5251L143.167 75.3758V125.083L100 149.939ZM59.9897 123.276L100 146.32L140.005 123.276V77.1824L100 54.1384L59.9897 77.1824V123.276Z" fill="#926A28"/>
<path d="M100 153.838L53.4697 127.035V73.4294L100 46.6211L146.53 73.4294V127.035L100 153.838ZM56.8334 125.083L100 149.939L143.167 125.083V75.3758L100 50.5252L56.8334 75.3758V125.083Z" fill="url(#paint3_linear)"/>
<path d="M52.4998 138.109L47.729 146.354L66.4589 151.902L80.8664 165.443L85.6372 157.199L52.4998 138.109Z" fill="url(#paint4_linear)"/>
<path d="M147.522 138.109L152.288 146.354L133.558 151.902L119.15 165.443L114.379 157.199L147.522 138.109Z" fill="url(#paint5_linear)"/>
<path d="M26.1738 86.4335H43.3508V72.8308L26.1738 86.4335Z" fill="url(#paint6_linear)"/>
<path d="M173.798 86.4335H156.621V72.8308L173.798 86.4335Z" fill="url(#paint7_linear)"/>
<path d="M26.1738 113.645L43.3508 127.253V113.645H26.1738Z" fill="url(#paint8_linear)"/>
<path d="M43.3508 86.4336H26.1738V113.645H43.3508V86.4336Z" fill="url(#paint9_linear)"/>
<path d="M173.826 113.645L156.644 127.253V113.645H173.826Z" fill="url(#paint10_linear)"/>
<path d="M156.649 113.65H173.826V86.4391H156.649V113.65Z" fill="url(#paint11_linear)"/>
<path d="M52.4216 57.2985L79.8576 41.7717V46.621L84.1014 44.0649V35.0095L48.6431 54.8599V64.5529L52.4216 62.3771V57.2985Z" fill="url(#paint12_linear)"/>
<path d="M56.8559 59.8265H56.8447H56.8559L68.354 53.2209L56.8559 59.8265Z" fill="url(#paint13_linear)"/>
<path d="M52.4214 62.3883V57.2985L79.8574 41.7717V46.621L56.8558 59.8266L52.4214 62.3883Z" fill="url(#paint14_linear)"/>
<path d="M142.331 59.3288L142.337 59.3344L142.331 59.3288L130.828 52.7288L142.331 59.3288Z" fill="url(#paint15_linear)"/>
<path d="M146.76 56.8007L119.324 41.2739V46.1232L115.08 43.5671V34.5117L150.539 54.3621V64.0551L146.76 61.8793V56.8007Z" fill="url(#paint16_linear)"/>
<path d="M146.67 61.8402V56.7504L119.234 41.2236V46.073L142.236 59.2785L146.67 61.8402Z" fill="url(#paint17_linear)"/>
<ellipse cx="99.9999" cy="100.559" rx="22.4242" ry="22.3729" fill="#6C4D1F"/>
<path d="M100 69.5518C93.9645 69.5518 88.0642 71.3375 83.0455 74.6832C78.0269 78.0289 74.1153 82.7842 71.8055 88.3479C69.4956 93.9115 68.8913 100.034 70.0688 105.94C71.2464 111.846 74.1529 117.272 78.4209 121.53C82.689 125.788 88.1268 128.688 94.0467 129.863C99.9666 131.038 106.103 130.435 111.679 128.13C117.256 125.826 122.022 121.923 125.375 116.916C128.729 111.909 130.518 106.022 130.518 99.9998C130.509 91.9273 127.291 84.188 121.57 78.4799C115.849 72.7717 108.091 69.5609 100 69.5518V69.5518ZM103.522 116.396C103.522 117.328 103.151 118.222 102.49 118.88C101.83 119.539 100.934 119.909 99.9998 119.909C99.0658 119.909 98.1701 119.539 97.5097 118.88C96.8493 118.221 96.4782 117.327 96.4782 116.396C96.4782 115.464 96.8493 114.57 97.5097 113.911C98.1701 113.252 99.0658 112.882 99.9998 112.882C100.934 112.882 101.83 113.252 102.49 113.911C103.151 114.569 103.522 115.463 103.522 116.395V116.396ZM108.3 103.597C106.676 105.225 104.605 106.338 102.348 106.794V107.026C102.348 107.648 102.101 108.243 101.66 108.682C101.22 109.122 100.623 109.368 100 109.368C99.3778 109.368 98.7807 109.122 98.3405 108.682C97.9002 108.243 97.6529 107.648 97.6529 107.026V104.684C97.6529 104.063 97.9003 103.467 98.3405 103.028C98.7808 102.589 99.3778 102.342 100 102.342C101.393 102.342 102.755 101.93 103.913 101.158C105.071 100.386 105.973 99.2883 106.506 98.0045C107.039 96.7207 107.179 95.308 106.907 93.9451C106.635 92.5822 105.965 91.3302 104.98 90.3476C103.995 89.365 102.74 88.6959 101.374 88.4248C100.008 88.1536 98.5921 88.2928 97.3053 88.8245C96.0185 89.3563 94.9186 90.2568 94.1448 91.4121C93.371 92.5675 92.9579 93.9259 92.9578 95.3155C92.9578 95.9367 92.7105 96.5324 92.2702 96.9717C91.83 97.4109 91.2329 97.6577 90.6103 97.6577C89.9877 97.6577 89.3906 97.4109 88.9503 96.9717C88.5101 96.5324 88.2627 95.9367 88.2627 95.3155C88.2628 93.3897 88.7389 91.4936 89.6489 89.7952C90.5589 88.0969 91.8746 86.6486 93.4796 85.5787C95.0845 84.5088 96.9292 83.8503 98.8501 83.6616C100.771 83.4729 102.709 83.7597 104.492 84.4967C106.276 85.2337 107.849 86.3981 109.074 87.8868C110.298 89.3754 111.136 91.1424 111.513 93.0312C111.889 94.92 111.793 96.8724 111.233 98.7153C110.672 100.558 109.665 102.235 108.3 103.597V103.597Z" fill="url(#paint18_linear)"/>
<path d="M6 1H194V-1H6V1ZM199 6V194H201V6H199ZM194 199H5.99999V201H194V199ZM1 194V5.99999H-1V194H1ZM5.99999 199C3.23857 199 1 196.761 1 194H-1C-1 197.866 2.134 201 5.99999 201V199ZM199 194C199 196.761 196.761 199 194 199V201C197.866 201 201 197.866 201 194H199ZM194 1C196.761 1 199 3.23858 199 6H201C201 2.13401 197.866 -1 194 -1V1ZM6 -1C2.13401 -1 -1 2.134 -1 5.99999H1C1 3.23857 3.23858 1 6 1V-1Z" fill="#BFA888"/>
<defs>
<linearGradient id="paint0_linear" x1="124.751" y1="140.934" x2="67.0453" y2="45.5975" gradientUnits="userSpaceOnUse">
<stop stop-color="#A57A2C"/>
<stop offset="1" stop-color="#F6E948"/>
</linearGradient>
<linearGradient id="paint1_linear" x1="100" y1="165.488" x2="100" y2="34.9705" gradientUnits="userSpaceOnUse">
<stop stop-color="#6B4C1E"/>
<stop offset="1" stop-color="#A57A2C"/>
</linearGradient>
<linearGradient id="paint2_linear" x1="127.005" y1="140.498" x2="58.8048" y2="38.344" gradientUnits="userSpaceOnUse">
<stop offset="0.03" stop-color="#EED366"/>
<stop offset="1" stop-color="#FFEEC7"/>
</linearGradient>
<linearGradient id="paint3_linear" x1="124.19" y1="138.685" x2="67.2522" y2="47.762" gradientUnits="userSpaceOnUse">
<stop stop-color="#FFEEC7"/>
<stop offset="0.41" stop-color="#EED366"/>
<stop offset="1" stop-color="#926A28"/>
</linearGradient>
<linearGradient id="paint4_linear" x1="71.2955" y1="150.616" x2="64.1147" y2="163.832" gradientUnits="userSpaceOnUse">
<stop stop-color="#926A28"/>
<stop offset="0.119792" stop-color="#A17D2D"/>
<stop offset="0.25" stop-color="#BB9E35"/>
<stop offset="0.385417" stop-color="#D0B93C"/>
<stop offset="0.505208" stop-color="#E1CF41"/>
<stop offset="0.635417" stop-color="#EDDD45"/>
<stop offset="0.833333" stop-color="#F4E647"/>
<stop offset="1" stop-color="#F6E948"/>
</linearGradient>
<linearGradient id="paint5_linear" x1="129.634" y1="147.915" x2="139.289" y2="164.913" gradientUnits="userSpaceOnUse">
<stop stop-color="#926A28"/>
<stop offset="0.119792" stop-color="#A17D2D"/>
<stop offset="0.25" stop-color="#BB9E35"/>
<stop offset="0.385417" stop-color="#D0B93C"/>
<stop offset="0.505208" stop-color="#E1CF41"/>
<stop offset="0.635417" stop-color="#EDDD45"/>
<stop offset="0.833333" stop-color="#F4E647"/>
<stop offset="1" stop-color="#F6E948"/>
</linearGradient>
<linearGradient id="paint6_linear" x1="26.1738" y1="79.6322" x2="43.3564" y2="79.6322" gradientUnits="userSpaceOnUse">
<stop stop-color="#FFEEC7"/>
<stop offset="0.24" stop-color="#FDECC4"/>
<stop offset="0.4" stop-color="#F7E4BC"/>
<stop offset="0.54" stop-color="#EDD8AD"/>
<stop offset="0.66" stop-color="#DEC697"/>
<stop offset="0.77" stop-color="#CCB07C"/>
<stop offset="0.88" stop-color="#B4945A"/>
<stop offset="0.98" stop-color="#9A7333"/>
<stop offset="1" stop-color="#926A28"/>
</linearGradient>
<linearGradient id="paint7_linear" x1="173.798" y1="79.6322" x2="156.616" y2="79.6322" gradientUnits="userSpaceOnUse">
<stop stop-color="#FFEEC7"/>
<stop offset="0.24" stop-color="#FDECC4"/>
<stop offset="0.4" stop-color="#F7E4BC"/>
<stop offset="0.54" stop-color="#EDD8AD"/>
<stop offset="0.66" stop-color="#DEC697"/>
<stop offset="0.77" stop-color="#CCB07C"/>
<stop offset="0.88" stop-color="#B4945A"/>
<stop offset="0.98" stop-color="#9A7333"/>
<stop offset="1" stop-color="#926A28"/>
</linearGradient>
<linearGradient id="paint8_linear" x1="26.1738" y1="120.451" x2="43.3564" y2="120.451" gradientUnits="userSpaceOnUse">
<stop stop-color="#926A28"/>
<stop offset="0.39" stop-color="#8F6827"/>
<stop offset="0.65" stop-color="#876125"/>
<stop offset="0.87" stop-color="#785621"/>
<stop offset="1" stop-color="#6B4C1E"/>
</linearGradient>
<linearGradient id="paint9_linear" x1="26.1738" y1="100.042" x2="43.3564" y2="100.042" gradientUnits="userSpaceOnUse">
<stop stop-color="#EBCC80"/>
<stop offset="0.29" stop-color="#E9C97E"/>
<stop offset="0.47" stop-color="#E1C176"/>
<stop offset="0.63" stop-color="#D3B268"/>
<stop offset="0.78" stop-color="#C09C55"/>
<stop offset="0.91" stop-color="#A7813D"/>
<stop offset="1" stop-color="#926A28"/>
</linearGradient>
<linearGradient id="paint10_linear" x1="21858" y1="2204.56" x2="21331.6" y2="2204.56" gradientUnits="userSpaceOnUse">
<stop stop-color="#926A28"/>
<stop offset="0.39" stop-color="#8F6827"/>
<stop offset="0.65" stop-color="#876125"/>
<stop offset="0.87" stop-color="#785621"/>
<stop offset="1" stop-color="#6B4C1E"/>
</linearGradient>
<linearGradient id="paint11_linear" x1="173.826" y1="100.042" x2="156.644" y2="100.042" gradientUnits="userSpaceOnUse">
<stop stop-color="#EBCC80"/>
<stop offset="0.29" stop-color="#E9C97E"/>
<stop offset="0.47" stop-color="#E1C176"/>
<stop offset="0.63" stop-color="#D3B268"/>
<stop offset="0.78" stop-color="#C09C55"/>
<stop offset="0.91" stop-color="#A7813D"/>
<stop offset="1" stop-color="#926A28"/>
</linearGradient>
<linearGradient id="paint12_linear" x1="48.6431" y1="64.5529" x2="84.028" y2="32.4041" gradientUnits="userSpaceOnUse">
<stop stop-color="#EED366"/>
<stop offset="1" stop-color="#FFEEC7"/>
</linearGradient>
<linearGradient id="paint13_linear" x1="808.744" y1="319.69" x2="806.447" y2="308.47" gradientUnits="userSpaceOnUse">
<stop offset="0.03" stop-color="#EED366"/>
<stop offset="1" stop-color="#FFEEC7"/>
</linearGradient>
<linearGradient id="paint14_linear" x1="68.4267" y1="56.1016" x2="64.773" y2="49.6454" gradientUnits="userSpaceOnUse">
<stop stop-color="#EED366"/>
<stop offset="1" stop-color="#926A28"/>
</linearGradient>
<linearGradient id="paint15_linear" x1="1424.73" y1="313.385" x2="1427.03" y2="302.165" gradientUnits="userSpaceOnUse">
<stop offset="0.03" stop-color="#EED366"/>
<stop offset="1" stop-color="#FFEEC7"/>
</linearGradient>
<linearGradient id="paint16_linear" x1="150.539" y1="64.0551" x2="115.154" y2="31.9063" gradientUnits="userSpaceOnUse">
<stop stop-color="#EED366"/>
<stop offset="1" stop-color="#FFEEC7"/>
</linearGradient>
<linearGradient id="paint17_linear" x1="130.665" y1="55.5535" x2="134.319" y2="49.0973" gradientUnits="userSpaceOnUse">
<stop stop-color="#EED366"/>
<stop offset="1" stop-color="#926A28"/>
</linearGradient>
<linearGradient id="paint18_linear" x1="100" y1="69.5518" x2="100" y2="130.448" gradientUnits="userSpaceOnUse">
<stop stop-color="#FFFEFC"/>
<stop offset="1" stop-color="#FFEFC2"/>
</linearGradient>
</defs>
</svg>
